<svg width="40" height="40" viewBox="0 0 40 40" fill="none" xmlns="http://www.w3.org/2000/svg">
<path d="M0.5 11C0.5 5.20101 5.20101 0.5 11 0.5H29C34.799 0.5 39.5 5.20101 39.5 11V29C39.5 34.799 34.799 39.5 29 39.5H11C5.20101 39.5 0.5 34.799 0.5 29V11Z" fill="white" stroke="#50555C"/>
<path d="M20.2292 11.292C17.0254 11.292 14.7924 13.8018 14.7924 16.0541C14.7924 17.9598 14.2635 18.8407 13.796 19.6181C13.4211 20.2423 13.125 20.7355 13.125 21.8071C13.2781 23.5359 14.4193 24.4443 20.2292 24.4443C26.0069 24.4443 27.1839 23.4956 27.3361 21.7475C27.3333 20.7355 27.0373 20.2423 26.6623 19.6181C26.1948 18.8407 25.6659 17.9598 25.6659 16.0541C25.6659 13.8018 23.4329 11.292 20.2292 11.292" stroke="#50555C"/>
<path fill-rule="evenodd" clip-rule="evenodd" d="M20.2264 25.8193C15.9401 25.8193 12.0663 25.5168 11.75 21.8657C11.7473 20.3551 12.2083 19.5869 12.6153 18.9104C13.0269 18.2247 13.4147 17.5785 13.4147 16.0541C13.4147 13.0905 16.1518 9.91699 20.2264 9.91699C24.301 9.91699 27.0382 13.0905 27.0382 16.0541C27.0382 17.5785 27.4259 18.2247 27.8375 18.9104C28.2445 19.5869 28.7056 20.3551 28.7056 21.8071C28.3857 25.5168 24.5128 25.8193 20.2264 25.8193Z" stroke="#50555C"/>
<path fill-rule="evenodd" clip-rule="evenodd" d="M20.1819 29.6251H20.1801C19.1525 29.6241 18.1799 29.1713 17.442 28.3491C17.1881 28.0676 17.211 27.6322 17.4933 27.3792C17.7757 27.1244 18.2102 27.1473 18.4641 27.4306C18.9389 27.9595 19.5485 28.2501 20.181 28.2501C20.8163 28.2501 21.4295 27.9595 21.9053 27.4296C22.1601 27.1482 22.5946 27.1253 22.876 27.3792C23.1583 27.6331 23.1813 28.0686 22.9273 28.35C22.1867 29.1722 21.2123 29.6251 20.1819 29.6251Z" stroke="#50555C"/>
</svg>
