<svg width="29" height="28" viewBox="0 0 29 28" fill="none" xmlns="http://www.w3.org/2000/svg">
<mask id="mask0_2513_121" style="mask-type:luminance" maskUnits="userSpaceOnUse" x="2" y="1" width="25" height="26">
<path fill-rule="evenodd" clip-rule="evenodd" d="M2.5 1.16699H26.4164V26.2562H2.5V1.16699Z" fill="white"/>
</mask>
<g mask="url(#mask0_2513_121)">
<path fill-rule="evenodd" clip-rule="evenodd" d="M16.1698 17.8399C17.5745 17.8399 18.7178 18.975 18.7178 20.3704V23.959C18.7178 24.2589 18.9582 24.4992 19.2662 24.5062H21.4898C23.2422 24.5062 24.6667 23.0992 24.6667 21.3702V11.1922C24.6585 10.5972 24.375 10.0372 23.8885 9.66504L16.1967 3.53071C15.1642 2.71287 13.7198 2.71287 12.6838 3.53304L5.0445 9.66271C4.53933 10.0465 4.25583 10.6065 4.25 11.212V21.3702C4.25 23.0992 5.6745 24.5062 7.42683 24.5062H9.6715C9.98767 24.5062 10.2443 24.2554 10.2443 23.9474C10.2443 23.8797 10.2525 23.812 10.2665 23.7479V20.3704C10.2665 18.9832 11.4028 17.8492 12.797 17.8399H16.1698ZM21.4898 26.2562H19.2452C17.9595 26.2259 16.9678 25.2167 16.9678 23.959V20.3704C16.9678 19.9399 16.6097 19.5899 16.1698 19.5899H12.8028C12.3723 19.5922 12.0165 19.9434 12.0165 20.3704V23.9474C12.0165 24.0349 12.0048 24.1189 11.9803 24.1982C11.8543 25.3532 10.8673 26.2562 9.6715 26.2562H7.42683C4.70967 26.2562 2.5 24.064 2.5 21.3702V11.2039C2.51167 10.0442 3.046 8.98254 3.96883 8.28371L11.593 2.16454C13.2718 0.83454 15.611 0.83454 17.2863 2.16221L24.9653 8.28721C25.8672 8.97437 26.4015 10.0337 26.4167 11.1794V21.3702C26.4167 24.064 24.207 26.2562 21.4898 26.2562Z" fill="black"/>
</g>
</svg>
