<svg width="9" height="13" viewBox="0 0 9 13" fill="none" xmlns="http://www.w3.org/2000/svg">
<path d="M1.29202 10.462L5.17202 6.58202L1.29202 2.70202C1.19944 2.60944 1.126 2.49953 1.07589 2.37856C1.02579 2.2576 1 2.12795 1 1.99702C1 1.86609 1.02579 1.73644 1.07589 1.61548C1.126 1.49451 1.19944 1.3846 1.29202 1.29202C1.3846 1.19944 1.49451 1.126 1.61548 1.07589C1.73644 1.02579 1.86609 1 1.99702 1C2.12795 1 2.2576 1.02579 2.37856 1.07589C2.49953 1.126 2.60944 1.19944 2.70202 1.29202L7.29202 5.88202C7.68202 6.27202 7.68202 6.90202 7.29202 7.29202L2.70202 11.882C2.60951 11.9747 2.49962 12.0483 2.37864 12.0985C2.25767 12.1486 2.12799 12.1745 1.99702 12.1745C1.86605 12.1745 1.73637 12.1486 1.6154 12.0985C1.49442 12.0483 1.38453 11.9747 1.29202 11.882C0.912021 11.492 0.902021 10.852 1.29202 10.462Z" stroke="#50555C"/>
</svg>
