<svg width="29" height="28" viewBox="0 0 29 28" fill="none" xmlns="http://www.w3.org/2000/svg">
<mask id="mask0_2513_147" style="mask-type:luminance" maskUnits="userSpaceOnUse" x="5" y="16" width="19" height="10">
<path fill-rule="evenodd" clip-rule="evenodd" d="M5.50098 16.9121H23.9809V25.5151H5.50098V16.9121Z" fill="white"/>
</mask>
<g mask="url(#mask0_2513_147)">
<path fill-rule="evenodd" clip-rule="evenodd" d="M14.7421 18.6621C9.77098 18.6621 7.25098 19.5161 7.25098 21.2019C7.25098 22.9029 9.77098 23.7651 14.7421 23.7651C19.7121 23.7651 22.231 22.9111 22.231 21.2253C22.231 19.5243 19.7121 18.6621 14.7421 18.6621M14.7421 25.5151C12.4566 25.5151 5.50098 25.5151 5.50098 21.2019C5.50098 17.3566 10.7755 16.9121 14.7421 16.9121C17.0276 16.9121 23.981 16.9121 23.981 21.2253C23.981 25.0706 18.7076 25.5151 14.7421 25.5151" fill="black"/>
</g>
<mask id="mask1_2513_147" style="mask-type:luminance" maskUnits="userSpaceOnUse" x="8" y="2" width="13" height="13">
<path fill-rule="evenodd" clip-rule="evenodd" d="M8.5459 2.3335H20.9359V14.7219H8.5459V2.3335Z" fill="white"/>
</mask>
<g mask="url(#mask1_2513_147)">
<path fill-rule="evenodd" clip-rule="evenodd" d="M14.7421 3.99901C12.2443 3.99901 10.2119 6.03017 10.2119 8.52801C10.2038 11.0177 12.2209 13.0477 14.7083 13.057L14.7421 13.89V13.057C17.2388 13.057 19.2699 11.0247 19.2699 8.52801C19.2699 6.03017 17.2388 3.99901 14.7421 3.99901M14.7421 14.7218H14.7048C11.2958 14.7113 8.53427 11.9312 8.54594 8.52451C8.54594 5.11201 11.3249 2.33301 14.7421 2.33301C18.1581 2.33301 20.9359 5.11201 20.9359 8.52801C20.9359 11.944 18.1581 14.7218 14.7421 14.7218" fill="black"/>
</g>
</svg>
