<svg width="30" height="30" viewBox="0 0 30 30" fill="none" xmlns="http://www.w3.org/2000/svg">
<path fill-rule="evenodd" clip-rule="evenodd" d="M25.9383 27.4246H16.8721C16.3546 27.4246 15.9346 27.0046 15.9346 26.4871C15.9346 25.9696 16.3546 25.5496 16.8721 25.5496H25.9383C26.4558 25.5496 26.8758 25.9696 26.8758 26.4871C26.8758 27.0046 26.4558 27.4246 25.9383 27.4246Z" fill="black"/>
<mask id="mask0_2355_6668" style="mask-type:luminance" maskUnits="userSpaceOnUse" x="2" y="3" width="22" height="25">
<path fill-rule="evenodd" clip-rule="evenodd" d="M2.5 3.75024H23.9757V27.4247H2.5V3.75024Z" fill="white"/>
</mask>
<g mask="url(#mask0_2355_6668)">
<path fill-rule="evenodd" clip-rule="evenodd" d="M16.3878 6.27105L4.61909 20.9898C4.40534 21.2573 4.32659 21.6023 4.40534 21.9335L5.25659 25.5398L9.05534 25.4923C9.41659 25.4885 9.75034 25.3273 9.97159 25.0523C13.9928 20.021 21.6591 10.4285 21.8766 10.1473C22.0816 9.8148 22.1616 9.3448 22.0541 8.8923C21.9441 8.42855 21.6553 8.0348 21.2391 7.78355C21.1503 7.7223 19.0441 6.0873 18.9791 6.03605C18.1866 5.40105 17.0303 5.51105 16.3878 6.27105ZM4.51659 27.4248C4.08284 27.4248 3.70534 27.1273 3.60409 26.7035L2.58034 22.3648C2.36909 21.466 2.57909 20.5385 3.15534 19.8185L14.9303 5.09105C14.9353 5.08605 14.9391 5.0798 14.9441 5.0748C16.2353 3.53105 18.5703 3.30355 20.1453 4.5673C20.2078 4.61605 22.2991 6.24105 22.2991 6.24105C23.0591 6.69355 23.6528 7.5023 23.8778 8.4598C24.1016 9.4073 23.9391 10.3848 23.4178 11.211C23.3791 11.2723 23.3453 11.3248 11.4353 26.2248C10.8616 26.9398 10.0016 27.356 9.07784 27.3673L4.52909 27.4248H4.51659Z" fill="black"/>
</g>
<path fill-rule="evenodd" clip-rule="evenodd" d="M20.2788 14.606C20.0788 14.606 19.8788 14.5422 19.7075 14.4122L12.8925 9.17721C12.4825 8.86221 12.405 8.27471 12.72 7.86221C13.0363 7.45221 13.6238 7.37596 14.035 7.69096L20.8513 12.9247C21.2613 13.2397 21.3388 13.8285 21.0225 14.2397C20.8388 14.4797 20.56 14.606 20.2788 14.606Z" fill="black"/>
</svg>
